Coordinates
version=1
nRows=4
nColumns=114
inDegrees=yes

Units are S.I. units (second, meters, Newtons, ...)
If the header above contains a line with 'inDegrees', this indicates whether rotational values are in degrees (yes) or radians (no).

endheader 
time	pelvis_tilt	pelvis_list	pelvis_rotation	pelvis_tx	pelvis_ty	pelvis_tz	hip_flexion_l	hip_adduction_l	hip_rotation_l	hip_flexion_r	hip_adduction_r	hip_rotation_r	knee_angle_l	knee_angle_r	ankle_angle_l	ankle_angle_r	subtalar_angle_l	subtalar_angle_r	mtp_angle_l	mtp_angle_r	lumbar_extension	lumbar_bending	lumbar_rotation	arm_flex_l	arm_add_l	arm_rot_l	arm_flex_r	arm_add_r	arm_rot_r	elbow_flex_l	elbow_flex_r	pro_sup_l	pro_sup_r	addbrev_l/activation	addlong_l/activation	addmagDist_l/activation	addmagIsch_l/activation	addmagMid_l/activation	addmagProx_l/activation	bflh_l/activation	bfsh_l/activation	edl_l/activation	ehl_l/activation	fdl_l/activation	fhl_l/activation	gaslat_l/activation	gasmed_l/activation	glmax1_l/activation	glmax2_l/activation	glmax3_l/activation	glmed1_l/activation	glmed2_l/activation	glmed3_l/activation	glmin1_l/activation	glmin2_l/activation	glmin3_l/activation	grac_l/activation	iliacus_l/activation	perbrev_l/activation	perlong_l/activation	piri_l/activation	psoas_l/activation	recfem_l/activation	sart_l/activation	semimem_l/activation	semiten_l/activation	soleus_l/activation	tfl_l/activation	tibant_l/activation	tibpost_l/activation	vasint_l/activation	vaslat_l/activation	vasmed_l/activation	addbrev_r/activation	addlong_r/activation	addmagDist_r/activation	addmagIsch_r/activation	addmagMid_r/activation	addmagProx_r/activation	bflh_r/activation	bfsh_r/activation	edl_r/activation	ehl_r/activation	fdl_r/activation	fhl_r/activation	gaslat_r/activation	gasmed_r/activation	glmax1_r/activation	glmax2_r/activation	glmax3_r/activation	glmed1_r/activation	glmed2_r/activation	glmed3_r/activation	glmin1_r/activation	glmin2_r/activation	glmin3_r/activation	grac_r/activation	iliacus_r/activation	perbrev_r/activation	perlong_r/activation	piri_r/activation	psoas_r/activation	recfem_r/activation	sart_r/activation	semimem_r/activation	semiten_r/activation	soleus_r/activation	tfl_r/activation	tibant_r/activation	tibpost_r/activation	vasint_r/activation	vaslat_r/activation	vasmed_r/activation	
          3.10000000	          2.70583778	         -4.74160260	          1.49044080	          0.90139236	          0.91630218	         -0.28809308	         -8.13851321	         -5.72635742	        -10.38230649	         22.25208916	          1.08416030	         12.87234847	         20.37437082	         16.38313737	         18.40578853	          5.33791025	         -8.05585217	        -13.31920286	        -21.56421949	         -0.32272698	        -14.99118240	          1.99194735	         -5.42279173	          8.66215725	         -9.40116915	         -5.57756426	         -0.25778451	         -7.37480718	        -15.03991471	         37.57617476	         19.33714956	         84.08601780	         78.79847123	          0.35791151	          0.39652344	          0.24766385	          0.30089807	          0.26336034	          0.27137278	          0.16374058	          0.64705776	          0.58910131	          0.58845017	          0.54088555	          0.50881191	          0.56139871	          0.57537862	          0.20223437	          0.15004382	          0.10387265	          0.89384920	          0.41974481	          0.19907493	          0.82950996	          0.62805301	          0.42456556	          0.36135461	          0.83390689	          0.60960760	          0.60139330	          0.36337228	          0.66053037	          0.72550419	          0.69460411	          0.22660108	          0.30431993	          0.11764862	          0.78969571	          0.66087707	          0.48355136	          0.26606247	          0.10314461	          0.20649205	          0.57592702	          0.67666039	          0.37323035	          0.31523493	          0.47169567	          0.58434076	          0.41871391	          0.67535138	          0.76094918	          0.68212406	          0.47797875	          0.36467994	          0.19792415	          0.10969088	          0.50740076	          0.37130709	          0.29112708	          0.46665384	          0.52664940	          0.58132903	          0.57790093	          0.60990959	          0.61278784	          0.60672137	          0.77456493	          0.66122113	          0.69111993	          0.72456236	          0.79822253	          0.45236603	          0.71890090	          0.38687460	          0.49147801	          0.04322295	          0.62136397	          0.86146861	          0.25954690	          0.20934727	          0.07631654	          0.15696948	
          3.11000000	          2.63787711	         -4.77786461	          1.49900044	          0.90805095	          0.91519041	         -0.28749492	         -8.52631661	         -5.85206367	        -10.72194931	         22.13200653	          1.39612106	         12.69834796	         20.41030125	         16.62063861	         18.42850670	          5.15640664	         -7.96220010	        -13.54252778	        -21.94606346	         -0.31902591	        -14.96972548	          2.34937879	         -5.49234575	          8.67689092	         -9.33909626	         -5.58076929	         -0.32787213	         -7.52360463	        -15.35075538	         38.03010079	         19.40669836	         84.19209901	         78.63607609	          0.37168140	          0.43956123	          0.25239127	          0.30732863	          0.26966651	          0.27111806	          0.16277018	          0.64686952	          0.58290892	          0.58502121	          0.54371784	          0.51879480	          0.59635516	          0.62506360	          0.19586804	          0.14617596	          0.10220949	          0.89132803	          0.39244345	          0.18714588	          0.82932109	          0.61056779	          0.40821799	          0.36588475	          0.83529591	          0.59528868	          0.58600776	          0.36731060	          0.66252326	          0.71974741	          0.69026645	          0.22705968	          0.30711802	          0.14307497	          0.78492449	          0.66014514	          0.50088216	          0.26253499	          0.10196540	          0.20596009	          0.59654959	          0.70300757	          0.37849995	          0.31339717	          0.48685517	          0.60918062	          0.48894113	          0.68318382	          0.75936633	          0.67790998	          0.47403141	          0.36088742	          0.23610983	          0.13936000	          0.53273274	          0.40744861	          0.32081214	          0.41527684	          0.48998964	          0.57066797	          0.54818146	          0.58853188	          0.60185813	          0.63084435	          0.76741746	          0.66581778	          0.70359458	          0.72972609	          0.82056905	          0.41576907	          0.72805814	          0.49349045	          0.52069072	          0.04370682	          0.61376282	          0.85661591	          0.24848459	          0.19532889	          0.07119446	          0.14696029	
          3.12000000	          2.55822435	         -4.80476497	          1.51530720	          0.91491071	          0.91428078	         -0.28674936	         -8.86893206	         -5.98676517	        -11.04274665	         21.99786050	          1.71474096	         12.51042539	         20.50549742	         17.13325888	         18.26026957	          4.90497815	         -7.90993361	        -13.86962756	        -22.49536205	         -0.31408087	        -14.92206686	          2.69321807	         -5.57167480	          8.66049174	         -9.27659791	         -5.59752387	         -0.41795004	         -7.64412136	        -15.63092648	         38.42812135	         19.46671909	         84.29363979	         78.48456183	          0.39351192	          0.50645822	          0.25705576	          0.31065313	          0.27852327	          0.27360888	          0.16076611	          0.64693991	          0.57698638	          0.58165189	          0.54545842	          0.52619218	          0.62496474	          0.66547084	          0.18854236	          0.14103553	          0.10017560	          0.88436188	          0.36531837	          0.17550430	          0.82610571	          0.59296126	          0.39098643	          0.37344333	          0.83978268	          0.58314078	          0.57674525	          0.37033668	          0.67454823	          0.71057792	          0.68885858	          0.22598174	          0.30640866	          0.17830063	          0.77972359	          0.65781687	          0.51192496	          0.26079140	          0.10034299	          0.20201606	          0.60678113	          0.70242839	          0.38636691	          0.31571895	          0.49844376	          0.62144093	          0.53077402	          0.70002559	          0.75863783	          0.67149743	          0.46846982	          0.35373421	          0.26290684	          0.16577551	          0.54685131	          0.42854673	          0.34295816	          0.37888970	          0.47070543	          0.56580915	          0.52725526	          0.57476197	          0.59746858	          0.65165450	          0.75919152	          0.68201491	          0.72404785	          0.72758198	          0.81748359	          0.37745277	          0.73644743	          0.56279971	          0.57275999	          0.04646486	          0.60862322	          0.83998312	          0.23254728	          0.17965505	          0.06501729	          0.13494205	
          3.13000000	          2.46996386	         -4.82421838	          1.53951337	          0.92197586	          0.91358453	         -0.28585348	         -9.16771500	         -6.13233814	        -11.33241496	         21.85698177	          2.02205399	         12.31839516	         20.66269484	         17.83776902	         17.89975944	          4.58653306	         -7.90788877	        -14.29642552	        -23.22157904	         -0.30693592	        -14.84750175	          3.02219597	         -5.65956133	          8.61150486	         -9.21288947	         -5.62444118	         -0.52511535	         -7.73664173	        -15.88174458	         38.76253382	         19.51476739	         84.39143534	         78.34354047	          0.41834496	          0.56964090	          0.26207542	          0.31634858	          0.28841982	          0.27588444	          0.15872858	          0.64706125	          0.57296466	          0.57839619	          0.54563767	          0.52955520	          0.64567133	          0.69581323	          0.18057255	          0.13531500	          0.09778950	          0.88007174	          0.33847124	          0.16378344	          0.82370980	          0.57359667	          0.37254521	          0.38056568	          0.84416613	          0.58127371	          0.57932738	          0.37049983	          0.68596800	          0.69298015	          0.68744641	          0.22724414	          0.30741593	          0.21608450	          0.77346091	          0.65023098	          0.51477693	          0.25624319	          0.09877857	          0.20012948	          0.60663149	          0.69863494	          0.39374243	          0.32686794	          0.50386158	          0.62098369	          0.54533102	          0.70147234	          0.75940074	          0.66690125	          0.46377741	          0.34671361	          0.27289004	          0.17570583	          0.55025272	          0.43528717	          0.35198151	          0.36368079	          0.46866742	          0.56692438	          0.52150763	          0.57159223	          0.59592358	          0.65607992	          0.75306438	          0.69548548	          0.73715405	          0.72291927	          0.80820668	          0.35133254	          0.73674704	          0.58176080	          0.59162904	          0.04804626	          0.60600992	          0.82880836	          0.21639107	          0.16918506	          0.06043463	          0.12648879	
